HIERARCHY
ROOT Hips
{
	OFFSET 0.0000 0.0000 0.0000
	CHANNELS 6 Xposition Yposition Zposition Zrotation Xrotation Yrotation
	JOINT Ab
	{
		OFFSET -0.0000 8.1305 -0.0000
		CHANNELS 3 Zrotation Xrotation Yrotation
		JOINT Chest
		{
			OFFSET -0.0000 26.2902 -0.0000
			CHANNELS 3 Zrotation Xrotation Yrotation
			JOINT Neck
			{
				OFFSET -0.0000 26.2902 0.0000
				CHANNELS 3 Zrotation Xrotation Yrotation
				JOINT Head
				{
					OFFSET -0.0000 10.8167 0.0000
					CHANNELS 3 Zrotation Xrotation Yrotation
					End Site
					{
						OFFSET -0.0000 16.7167 0.0000
					}
				}
			}
			JOINT LeftCollar
			{
				OFFSET -0.0000 26.2902 0.0000
				CHANNELS 3 Zrotation Xrotation Yrotation
				JOINT LeftShoulder
				{
					OFFSET 19.6667 -0.0000 0.0000
					CHANNELS 3 Zrotation Xrotation Yrotation
					JOINT LeftElbow
					{
						OFFSET 27.2190 0.0000 0.0000
						CHANNELS 3 Zrotation Xrotation Yrotation
						JOINT LeftWrist
						{
							OFFSET 30.7431 0.0000 0.0000
							CHANNELS 3 Zrotation Xrotation Yrotation
							End Site
							{
								OFFSET 0.0000 -14.7500 0.0000
							}
						}
					}
				}
			}
			JOINT RightCollar
			{
				OFFSET -0.0000 26.2902 0.0000
				CHANNELS 3 Zrotation Xrotation Yrotation
				JOINT RightShoulder
				{
					OFFSET -19.6667 0.0000 0.0000
					CHANNELS 3 Zrotation Xrotation Yrotation
					JOINT RightElbow
					{
						OFFSET -27.2190 0.0000 0.0000
						CHANNELS 3 Zrotation Xrotation Yrotation
						JOINT RightWrist
						{
							OFFSET -30.7431 0.0000 0.0000
							CHANNELS 3 Zrotation Xrotation Yrotation
							End Site
							{
								OFFSET -0.0000 -14.7500 0.0000
							}
						}
					}
				}
			}
		}
	}
	JOINT LeftHip
	{
		OFFSET 11.8000 0.0000 0.0000
		CHANNELS 3 Zrotation Xrotation Yrotation
		JOINT LeftKnee
		{
			OFFSET -0.0000 -39.7832 0.0000
			CHANNELS 3 Zrotation Xrotation Yrotation
			JOINT LeftAnkle
			{
				OFFSET -0.0000 -41.7317 0.0000
				CHANNELS 3 Zrotation Xrotation Yrotation
				End Site
				{
					OFFSET -0.0000 -4.9167 16.7167
				}
			}
		}
	}
	JOINT RightHip
	{
		OFFSET -11.8000 0.0000 0.0000
		CHANNELS 3 Zrotation Xrotation Yrotation
		JOINT RightKnee
		{
			OFFSET -0.0000 -39.7832 0.0000
			CHANNELS 3 Zrotation Xrotation Yrotation
			JOINT RightAnkle
			{
				OFFSET -0.0000 -41.7317 0.0000
				CHANNELS 3 Zrotation Xrotation Yrotation
				End Site
				{
					OFFSET -0.0000 -4.9167 16.7167
				}
			}
		}
	}
}
MOTION
Frames: 19
Frame Time: 0.010000
-10.1973 87.9883 125.9812 358.6558 337.7098 181.3556 2.5946 352.7454 357.4886 3.7331 7.2323 357.0960 1.9181 329.6152 6.0244 351.1511 11.1995 6.3791 339.0828 356.4370 19.4729 352.8740 55.1061 311.0455 15.7014 343.6366 266.5520 97.8467 357.4521 3.3930 25.1135 356.4801 344.1709 44.1945 29.2520 342.8914 349.8081 351.4806 71.7160 268.1707 354.3262 16.1370 1.3160 358.5285 359.4392 0.1419 38.0965 4.3022 342.6349 350.2394 10.7589 349.4655 320.1155 359.6442 19.3522 44.3796 9.2751 347.1646 329.5232 308.5431 
-9.7663 87.7941 124.6440 358.6742 337.5113 180.8487 2.7212 352.7507 358.0463 3.9839 7.1411 357.6335 1.4624 329.8176 5.6704 351.4887 10.4396 6.0557 339.1749 356.4313 19.4195 350.9622 55.2896 313.6549 15.2256 344.7238 267.4701 98.6882 357.2947 3.2662 25.2533 356.3893 343.8001 43.9365 30.9938 344.7154 348.0558 350.1193 71.4930 267.4883 354.9839 14.1045 1.3995 356.1099 359.9055 0.4254 42.8659 3.4205 342.6603 350.1966 11.0619 350.5075 320.5707 0.6827 19.5848 45.0010 9.9004 345.7665 330.2709 307.2154 
-9.3287 87.5788 123.3177 358.7598 337.2742 180.2823 2.8686 352.6876 358.6416 4.2839 7.0997 358.1998 0.5673 329.9848 5.1760 352.4457 9.7200 5.6670 339.1972 356.4486 19.1780 348.6334 55.4226 316.9482 14.4957 345.9664 268.2987 99.7252 357.1235 3.0568 25.4059 356.2940 343.5144 43.4164 32.8525 346.5886 346.2146 348.7185 71.5323 266.7880 355.9536 11.9255 1.5278 353.5647 0.1344 0.5262 47.8776 3.5039 341.8656 350.6153 11.4512 351.6884 320.7820 1.4903 19.4735 45.6799 10.4278 344.5016 330.6985 306.2851 
-8.8248 87.3215 122.1094 359.0455 336.8218 179.8312 3.0553 352.6034 359.2100 4.6948 6.8517 358.7355 0.1817 330.3363 4.8331 352.6151 9.0128 5.3479 338.9940 356.4382 18.9254 346.6287 55.2790 320.0573 13.4252 347.5954 269.2644 101.8933 357.3355 2.5130 25.4635 356.2333 343.3950 42.9078 34.7221 348.2901 344.2941 347.2118 71.8861 266.0790 356.7917 9.9060 1.9267 350.9594 0.0098 359.3054 52.5502 5.6226 342.5172 351.4702 11.5554 352.7485 321.1941 2.1364 19.1287 46.1083 10.9227 343.2967 331.2688 305.9123 
-8.3463 87.0572 120.7862 359.2343 336.7414 179.2700 3.1291 352.7804 359.7444 5.0952 6.6382 359.2538 359.9083 330.8590 4.5796 352.6936 8.4107 5.1308 338.8027 356.4305 18.7904 345.1609 55.3282 322.8075 12.4972 348.6567 270.4310 102.9368 357.3769 1.6552 25.4742 356.1765 343.1390 41.9807 36.6413 350.3462 342.4400 345.7685 72.4633 265.4171 357.4429 8.2217 2.3400 348.1314 0.1512 358.3723 57.1580 7.0246 345.3240 352.2057 11.4095 354.0308 321.5469 3.0729 18.7759 46.4236 10.9266 342.5881 331.1061 305.7333 
-7.8712 86.8218 119.4803 359.4071 336.4921 178.7315 3.0997 352.8385 0.2724 5.6164 6.3154 359.7744 359.5302 331.3006 4.3070 352.7551 8.1115 4.9304 338.5940 356.4011 18.8206 343.9186 55.2618 325.3426 11.6313 349.7140 271.8744 103.1449 356.6326 0.4752 25.7454 356.0902 342.9471 40.3698 38.6175 352.5117 340.6530 344.2884 73.3110 264.7496 357.6352 6.2237 2.7371 345.2070 0.5114 357.6700 61.7268 7.8042 346.8831 352.9253 11.4874 355.2579 322.0718 4.1995 18.5494 46.6568 10.9194 341.9587 330.7236 305.5093 
-7.4427 86.6076 118.1709 359.4968 336.2516 178.3184 3.1611 352.9446 0.6000 5.8277 5.8812 0.1109 359.2278 331.6155 4.0799 352.8989 8.0849 4.7725 338.2344 356.3268 18.7920 342.4669 54.7564 328.3421 10.5312 351.2370 273.1430 103.7530 355.9797 359.5122 26.1944 355.9530 342.6663 38.2189 40.3104 355.0630 339.0760 342.9064 74.3492 263.8674 357.6953 4.7722 2.9303 342.2465 0.8397 356.6188 66.2760 9.0715 347.6102 353.2043 11.2111 356.3137 322.5600 5.1137 18.5507 46.7880 10.7508 341.2982 330.3695 305.1885 
-7.0220 86.4410 116.8966 359.5239 335.8994 177.9360 3.1580 353.0038 0.8365 6.0126 5.4473 0.3627 358.8889 331.7096 3.9559 353.2277 8.2365 4.7456 337.9581 356.2852 18.7794 341.0990 54.2739 331.2296 9.3112 352.6893 274.4125 104.5073 355.5049 359.0519 26.8694 355.8204 342.8875 35.7766 41.1993 357.2004 338.1115 341.9336 76.3836 262.8145 358.1039 2.9979 2.9279 339.3187 1.2211 355.3886 70.2057 10.6278 348.6947 352.9952 10.9142 357.2214 322.9999 6.2163 18.6218 46.8918 11.0403 340.5173 330.0963 304.3907 
-6.6439 86.3242 115.5333 359.3373 335.6857 177.3677 2.9202 353.0019 1.1661 6.2546 5.2702 0.7089 358.7413 331.8140 3.9721 353.3266 8.3299 4.8034 337.8712 356.2423 19.0906 340.4388 53.8358 332.9998 8.0897 353.9533 275.6990 105.4113 355.1787 358.9268 27.2506 355.7672 342.8928 33.3640 41.9173 0.3700 337.3135 341.0402 77.8568 261.7416 358.1638 1.4693 2.6947 336.5349 1.7578 355.4922 73.4850 10.7961 348.7360 352.3925 10.4924 357.8670 323.8455 7.2369 18.7458 46.6205 10.8217 339.9586 329.7519 304.1357 
-6.2507 86.2802 114.1170 359.1068 335.4527 176.9916 2.5662 352.9063 1.3904 6.4626 5.1852 0.9428 358.6027 331.8234 3.8490 353.4270 8.3211 4.6926 337.9298 356.2342 19.1878 338.9270 53.4622 335.7125 6.9268 355.1112 277.1250 105.0346 354.6885 358.3340 27.4536 355.7144 342.6891 30.8864 42.4579 4.2234 336.6506 340.2073 79.1836 261.5376 357.9643 0.0266 2.3853 333.6662 2.4444 356.1616 76.3547 10.7081 348.6649 352.1120 9.6730 358.3027 324.7535 7.8618 18.6671 46.2077 10.8302 339.4739 329.4277 303.9785 
-5.8967 86.2822 112.6965 358.6709 335.3029 176.5042 2.1724 352.9127 1.5775 6.4585 5.0893 1.1524 358.0272 331.8224 3.5848 354.1664 8.1139 4.5115 337.9832 356.2619 19.0075 336.9464 52.4895 339.1122 5.4263 356.7215 278.1843 105.0973 354.8334 357.7755 27.6110 355.6960 342.7907 28.8229 42.5695 7.4358 336.2580 339.3727 81.1689 261.6623 358.1953 358.7410 2.0011 330.9793 3.1060 356.7172 78.7961 10.2526 348.6091 351.6805 9.2690 358.3202 325.7931 8.0452 18.3126 45.7689 11.7166 339.0038 329.2959 303.5634 
-5.5873 86.3086 111.2300 358.3093 335.3060 176.2329 1.8630 353.0670 1.6959 6.3895 4.9289 1.3157 357.8119 331.8375 3.4274 354.3538 8.0343 4.3799 338.1992 356.3429 18.9234 335.1716 51.5771 342.1070 3.9308 358.0424 279.3722 104.4359 354.0524 356.2702 27.6252 355.7113 342.7853 27.0080 42.6211 10.6658 335.9364 338.4566 83.0747 261.5290 358.2240 358.3108 1.7092 328.2010 3.7583 356.1128 80.7832 10.8547 348.2846 351.4752 9.1112 358.1806 327.2333 7.9356 17.9632 45.0207 12.4423 338.5033 329.0199 303.2242 
-5.2921 86.3854 109.6875 357.9213 335.3150 175.9972 1.7880 353.2499 1.7268 5.9455 4.5737 1.4003 357.5274 332.1116 3.3319 354.7235 7.8780 4.3290 338.5821 356.4315 18.8307 333.5653 51.2153 344.6531 2.7454 358.8223 280.9341 103.1478 352.9375 354.1747 27.7160 355.7118 342.9480 25.5254 43.1674 13.3202 335.5144 337.2947 84.8381 261.1872 357.7192 357.9039 1.2182 325.4643 3.9372 353.1964 82.2595 13.7725 351.3682 350.9792 8.8168 357.8042 328.8424 7.5309 17.4871 43.9965 12.8770 338.3553 328.7136 303.5719 
-5.0005 86.5179 108.0514 357.2543 335.2935 175.5223 1.2682 353.1518 1.8925 5.8389 4.6055 1.5781 356.3430 332.2583 2.9461 356.0752 7.4647 4.1472 338.8424 356.5195 18.6044 332.5490 50.4346 347.2504 1.3518 0.0959 281.7033 102.6098 352.7303 352.7723 27.4360 355.8477 343.3585 24.2393 43.5963 15.8734 334.9677 335.9963 86.5387 260.7691 357.2866 357.8298 0.9293 322.9801 4.0375 350.7817 83.2913 15.3134 348.8275 350.3260 9.3435 357.2169 330.6645 7.4452 17.0750 42.5960 13.7334 338.1354 328.7377 303.5977 
-4.7823 86.6944 106.5314 356.7612 335.2812 175.4106 1.0207 353.2048 1.9214 5.4024 4.4107 1.6533 355.9300 332.2253 2.6567 356.4248 7.5765 3.9029 339.0681 356.5806 18.5820 331.8313 49.6540 349.8514 359.8937 1.3400 282.2506 102.9625 352.4698 351.6637 27.2842 355.9412 343.6133 23.2520 43.9487 17.9063 334.2400 334.5770 87.8812 261.1147 357.3333 357.9929 0.4270 320.5588 4.1337 347.1325 83.7565 18.1408 348.6704 349.5361 9.6521 356.6642 332.4081 6.7188 16.3203 41.2445 14.2690 338.2598 328.5298 304.2179 
-4.5846 86.8537 105.1721 356.2674 335.4354 175.1965 0.6727 353.3853 2.0263 5.0802 4.2436 1.8012 355.4311 332.2281 2.4496 357.0617 7.7049 3.7870 339.2942 356.6173 18.6417 331.4910 49.1216 351.9584 358.4231 2.5105 282.7255 103.2921 352.0807 350.2571 27.0931 356.0708 344.0890 22.3579 44.4236 19.5181 333.4637 333.2598 89.0014 260.6605 356.8337 357.5785 359.8336 318.2714 4.0578 343.7243 83.7258 20.9209 347.0306 348.4025 9.7425 356.1815 334.3032 6.0381 15.2963 39.8439 15.4718 338.7906 328.3644 304.7013 
-4.2857 87.1662 103.0139 355.5197 335.6395 174.8916 0.1633 353.6526 2.3080 4.5772 3.9182 2.1475 354.9017 332.4011 2.1362 357.6517 7.8629 3.5460 339.6209 356.6842 18.7148 331.1153 48.8883 353.2723 357.3272 3.1600 283.0225 102.9082 351.6538 348.9924 26.7267 356.2301 344.5393 21.2832 45.0968 21.3759 332.7753 331.5896 91.1081 259.6503 356.1325 357.1722 359.4818 317.0219 3.9722 342.8273 83.1014 21.7415 346.3005 348.2229 9.5861 355.5514 337.2163 5.2240 13.9551 37.4922 17.0757 339.7189 328.2859 305.4226 
-4.0650 87.4715 101.2251 354.8978 335.7493 174.7295 359.6699 353.7839 2.5005 4.1489 3.5858 2.3923 354.8588 332.4075 1.8975 357.6485 8.4005 3.3132 339.6618 356.6569 18.7649 330.9175 47.9978 356.0724 355.5855 4.7671 283.1473 103.9036 350.8198 347.4096 26.3353 356.3638 344.7217 20.4398 45.7016 23.0609 331.9930 330.2298 92.1739 258.3469 355.6508 357.0239 358.6326 314.5428 4.2744 345.2170 82.1099 18.4186 346.9809 348.2331 9.2525 355.0680 339.7326 4.8219 12.8691 35.1351 18.0346 340.6160 328.4260 305.9715 
-3.8435 87.8214 99.3906 354.2109 335.8418 174.4873 359.0377 353.9072 2.7293 3.8450 3.2542 2.6749 354.7751 332.1696 1.7401 357.6442 9.2517 3.2138 339.8342 356.7052 18.5369 331.0754 47.5694 357.7012 354.2753 5.6083 283.0591 103.9436 350.4238 346.5824 25.8308 356.4895 344.7810 19.3279 46.5631 25.0385 331.0031 328.6741 92.9209 257.9527 355.1112 356.3425 357.9199 312.9143 4.2295 344.5528 80.7259 18.8690 347.4539 347.6510 9.0869 354.6510 342.2977 4.8416 11.7742 32.5850 18.7125 341.9067 328.7245 306.6062 
